<!DOCTYPE svg PUBLIC "-//W3C//DTD SVG 20010904//EN" "http://www.w3.org/TR/2001/REC-SVG-20010904/DTD/svg10.dtd">
<svg version="1.0" xmlns="http://www.w3.org/2000/svg" width="1050px" height="699px" viewBox="0 0 10500 6990" preserveAspectRatio="xMidYMid meet">
<g id="layer101" fill="#ffffff" stroke="none">
 <path d="M2828 6274 c-67 -52 -63 -28 -43 -276 35 -420 115 -976 221 -1527 19 -101 33 -185 31 -187 -2 -3 -48 16 -102 41 -54 25 -100 45 -103 45 -6 0 7 -133 20 -195 16 -76 51 -147 116 -238 91 -125 276 -426 294 -477 9 -25 28 -84 43 -133 l26 -87 57 6 c177 19 162 15 190 64 31 55 25 91 -20 129 -97 81 -146 164 -258 435 l-61 150 -17 205 c-13 168 -16 371 -17 1095 l-1 888 -23 19 c-13 11 -33 19 -45 19 -11 0 -70 16 -130 35 -60 19 -112 35 -115 35 -3 -1 -32 -21 -63 -46z"/>
 <path d="M3457 5828 c-2 -7 -13 -80 -23 -162 l-18 -149 37 -32 c20 -18 37 -36 37 -42 0 -12 206 -163 346 -254 93 -61 103 -71 119 -115 10 -27 24 -64 32 -83 l13 -33 -37 7 c-61 11 -189 53 -326 107 -160 62 -196 59 -168 -15 10 -25 134 -100 394 -236 116 -62 117 -63 117 -98 0 -24 -4 -34 -12 -30 -7 2 -40 12 -73 21 -68 20 -267 104 -275 117 -9 13 -90 39 -90 29 0 -6 -7 -10 -15 -10 -12 0 -15 -19 -15 -108 0 -98 2 -110 25 -144 14 -21 58 -62 98 -91 165 -122 454 -415 426 -432 -28 -18 -175 42 -293 120 -100 67 -271 120 -302 94 -38 -31 4 -170 67 -223 16 -14 29 -30 29 -36 0 -25 152 -72 535 -166 l230 -56 73 18 c39 9 72 22 72 27 0 6 -16 36 -36 67 -27 41 -48 60 -78 73 -42 18 -196 142 -196 158 0 5 12 9 28 9 38 0 109 40 218 122 l92 69 -20 52 c-22 53 -75 120 -89 111 -14 -8 -144 48 -166 73 -59 64 -13 100 173 134 65 12 125 27 133 34 34 32 -23 108 -181 240 -61 51 -108 103 -174 193 l-89 123 -70 -6 c-87 -8 -102 -2 -211 77 l-86 63 97 3 c72 2 159 -6 334 -33 130 -19 263 -38 296 -41 74 -8 320 13 355 29 37 18 36 49 -3 110 l-35 54 -128 22 c-188 31 -298 41 -491 41 -166 0 -177 1 -270 31 -147 47 -268 102 -313 143 -40 36 -84 47 -93 24z m488 -1366 c50 -19 92 -36 94 -38 6 -5 22 -177 17 -182 -9 -8 -109 94 -172 174 -67 86 -75 101 -46 89 9 -5 58 -24 107 -43z"/>
 <path d="M1035 5251 c-48 -22 -79 -54 -100 -103 -17 -43 -19 -237 -6 -733 8 -297 9 -303 55 -560 26 -143 58 -307 71 -365 69 -303 71 -315 49 -427 -5 -27 -1 -37 23 -61 24 -25 40 -30 121 -41 l93 -12 82 36 c45 20 92 43 104 51 12 8 29 14 37 14 8 0 89 -58 180 -129 90 -72 182 -139 204 -150 108 -55 343 -89 428 -61 124 40 163 139 125 325 -38 190 -61 372 -112 885 -49 501 -50 519 -40 660 6 80 23 215 37 300 29 170 27 203 -19 271 -41 62 -184 97 -261 65 -52 -22 -80 -69 -131 -226 -75 -229 -88 -255 -151 -289 -49 -27 -54 -27 -68 -12 -19 21 -76 132 -76 149 0 7 -14 15 -31 19 -40 8 -56 35 -62 110 -10 119 -57 154 -167 125 -75 -20 -84 -16 -130 69 -45 82 -84 109 -159 109 -33 0 -72 -8 -96 -19z m976 -672 c13 -44 9 -120 -6 -150 -19 -35 -28 -31 -55 21 -28 55 -26 105 5 136 30 30 47 27 56 -7z m-183 -192 c216 -176 225 -190 236 -342 4 -49 18 -193 32 -320 14 -126 36 -347 49 -490 20 -227 21 -263 9 -282 -22 -35 -60 -29 -184 33 -94 45 -127 68 -193 132 -89 86 -165 193 -198 280 -27 71 -38 224 -19 247 11 13 27 15 91 9 64 -5 90 -3 150 16 41 12 95 33 121 46 68 34 65 57 -12 126 -41 35 -79 84 -117 147 -32 51 -59 89 -61 83 -2 -6 1 -41 6 -79 5 -37 9 -69 8 -70 -4 -5 -203 111 -213 125 -21 26 -16 169 7 220 10 23 26 45 34 48 33 13 39 73 18 158 l-20 78 35 -7 c25 -4 87 -49 221 -158z"/>
 <path d="M3820 3864 c0 -3 65 -75 145 -159 87 -92 145 -162 145 -174 0 -26 -29 -47 -129 -96 -80 -39 -82 -41 -77 -69 17 -84 63 -106 219 -106 l115 0 40 39 c75 73 70 140 -22 268 -72 100 -142 162 -212 189 -28 10 -61 32 -77 51 -16 18 -42 40 -57 48 -28 15 -90 21 -90 9z"/>
 <path d="M3583 3111 c-22 -14 -43 -42 -64 -86 -33 -70 -80 -118 -164 -166 -28 -15 -68 -46 -89 -68 l-40 -41 24 -25 c21 -22 31 -25 124 -27 133 -4 127 9 112 -261 -14 -257 -17 -262 -99 -160 -30 38 -70 97 -89 133 -19 36 -69 128 -111 205 -41 77 -85 172 -96 212 -23 78 -74 160 -112 182 -19 10 -33 11 -66 2 -37 -10 -45 -18 -69 -68 -24 -48 -28 -71 -32 -168 -5 -133 -8 -126 117 -285 l90 -115 -35 -9 c-31 -7 -48 -1 -177 64 -78 40 -197 106 -265 147 -188 113 -211 110 -236 -37 -9 -46 -14 -85 -13 -86 24 -19 585 -296 726 -358 l194 -86 104 0 c57 0 113 -5 124 -10 44 -24 63 -103 45 -185 -21 -87 -28 -91 -117 -65 -76 23 -203 82 -319 150 l-65 38 -77 -13 c-101 -18 -219 -53 -240 -73 -27 -24 -22 -39 34 -98 49 -52 56 -56 192 -100 436 -140 604 -151 756 -49 l52 35 59 -57 c33 -31 80 -87 104 -124 70 -107 143 -151 283 -171 73 -11 84 -10 152 12 64 21 83 33 142 91 81 79 108 133 140 279 22 102 23 118 23 655 l0 550 -29 43 c-20 29 -36 42 -52 42 -33 0 -320 -156 -345 -188 -12 -16 -19 -37 -17 -56 l3 -31 95 -5 c52 -3 105 -11 117 -18 36 -20 43 -72 43 -342 -1 -309 -13 -542 -35 -637 -22 -96 -68 -170 -124 -200 -39 -21 -58 -23 -170 -23 -103 0 -133 4 -166 20 -63 30 -80 49 -129 146 -43 84 -46 96 -46 167 0 53 4 77 12 77 6 0 55 -25 109 -55 l97 -55 154 0 c114 0 159 4 173 14 26 19 12 45 -35 63 -40 16 -41 17 -34 59 5 37 3 44 -17 54 -36 20 -118 100 -152 149 l-30 44 34 -6 c19 -3 80 -9 137 -13 77 -5 102 -4 102 6 0 29 -73 108 -179 195 -86 71 -129 99 -174 115 -46 15 -63 17 -68 8 -4 -7 -11 -45 -15 -86 -8 -89 3 -130 52 -204 20 -29 43 -68 50 -85 14 -33 14 -33 -23 -48 -20 -8 -58 -23 -84 -32 l-48 -17 -3 -58 -3 -57 -23 17 -23 18 20 124 c11 69 25 215 31 325 6 110 16 232 20 270 5 39 10 147 10 240 0 153 -2 173 -20 203 -24 40 -65 58 -145 67 -50 5 -65 3 -92 -14z"/>
 </g>

</svg>