<?xml version="1.0" standalone="no"?>
<!DOCTYPE svg PUBLIC "-//W3C//DTD SVG 20010904//EN"
 "http://www.w3.org/TR/2001/REC-SVG-20010904/DTD/svg10.dtd">
<svg version="1.0" xmlns="http://www.w3.org/2000/svg"
 width="344.000000pt" height="344.000000pt" viewBox="0 0 344.000000 344.000000"
 preserveAspectRatio="xMidYMid meet">
<metadata>
Created by potrace 1.11, written by Peter Selinger 2001-2013
</metadata>
<g transform="translate(0.000000,344.000000) scale(0.100000,-0.100000)"
fill="#000000" stroke="none">
<path d="M2372 3369 c-63 -12 -108 -44 -151 -108 -22 -31 -53 -69 -70 -85
l-31 -29 -47 25 c-81 44 -143 51 -248 29 -157 -32 -321 -88 -360 -122 -36 -32
-44 -60 -22 -76 16 -13 87 -33 151 -43 49 -8 55 -6 144 42 51 28 112 56 135
63 23 7 50 16 60 20 13 6 20 -1 32 -29 21 -50 19 -98 -6 -130 -19 -24 -26 -26
-94 -26 -52 0 -88 -6 -122 -21 -26 -11 -70 -30 -98 -41 -27 -12 -140 -68 -250
-124 l-200 -101 3 -44 c4 -53 25 -89 52 -89 11 0 51 19 88 41 110 68 278 149
307 149 31 0 37 12 -60 -111 l-50 -64 0 -85 c0 -98 21 -147 69 -163 27 -9 33
-6 62 25 18 21 39 59 48 93 10 31 50 117 89 189 80 146 140 227 156 211 5 -5
13 -72 17 -147 8 -166 8 -168 -81 -168 -45 0 -66 -4 -76 -16 -11 -14 -8 -21
28 -53 22 -20 61 -50 85 -68 28 -20 53 -48 66 -77 27 -57 51 -70 111 -61 93
14 105 37 98 197 -8 193 -28 449 -42 528 -12 68 -11 76 3 88 15 12 17 9 20
-26 3 -36 6 -39 52 -56 31 -11 50 -24 50 -34 0 -8 -15 -38 -32 -66 -29 -45
-33 -58 -32 -118 0 -37 3 -71 7 -74 11 -12 78 18 126 56 63 50 151 138 151
151 0 7 -31 8 -92 3 l-92 -7 33 42 c18 23 49 54 68 68 26 20 34 32 30 50 -3
18 2 27 24 39 32 16 38 38 13 48 -9 3 -56 6 -106 6 -86 0 -93 -2 -164 -40
l-74 -41 0 59 c0 47 6 70 31 116 44 82 72 96 187 96 113 0 139 -12 171 -74 34
-70 44 -165 45 -439 l1 -249 -24 -19 c-17 -14 -39 -19 -82 -19 -55 0 -59 -2
-59 -23 0 -13 10 -33 23 -44 27 -25 194 -113 213 -113 8 0 23 15 35 33 19 31
20 43 16 407 -5 405 -10 447 -61 534 -32 54 -88 100 -141 115 -45 12 -71 12
-133 0z"/>
<path d="M1073 2439 c-74 -14 -130 -45 -244 -135 l-110 -87 -54 27 c-91 44
-100 46 -162 34 -83 -16 -94 -28 -87 -97 6 -51 -7 -141 -36 -251 -5 -19 -11
-48 -14 -65 -3 -16 -15 -84 -26 -150 -33 -185 -38 -239 -45 -541 -8 -313 -5
-338 49 -379 24 -19 45 -25 80 -25 63 0 81 12 112 72 l26 50 41 -7 c96 -16
127 3 127 80 0 44 19 75 45 75 7 0 18 14 24 30 5 17 20 44 31 60 l21 29 35
-21 c43 -25 46 -32 94 -174 21 -64 48 -126 61 -140 31 -33 75 -39 138 -18 47
15 56 22 73 60 17 39 18 52 8 111 -32 206 -40 329 -30 423 14 127 27 251 41
390 12 132 44 379 59 460 17 97 -5 161 -65 186 -37 15 -125 17 -192 3z m27
-154 c10 -12 10 -41 1 -143 -14 -151 -28 -289 -41 -392 -5 -41 -12 -113 -15
-159 -8 -106 -25 -140 -94 -195 -31 -24 -84 -67 -118 -95 -34 -28 -73 -53 -87
-57 -24 -6 -24 -5 -15 33 14 63 11 93 -16 125 -21 25 -25 40 -25 98 l0 69 69
41 c38 22 71 40 74 40 2 0 0 -21 -4 -47 -5 -25 -7 -48 -5 -50 2 -3 21 23 41
55 20 33 54 74 76 91 56 45 52 66 -18 98 -46 21 -74 27 -133 27 l-75 1 -3 68
c-3 58 1 76 28 132 46 97 134 186 232 235 88 44 109 48 128 25z m-95 -1021 c0
-67 -18 -79 -44 -32 -14 24 -14 30 2 63 25 53 42 40 42 -31z"/>
<path d="M1850 2020 c-18 -63 -44 -114 -112 -223 -49 -78 -100 -155 -112 -172
-40 -52 -63 -108 -75 -184 -6 -40 -9 -76 -6 -79 3 -3 35 8 70 26 75 37 74 39
49 -78 -17 -83 -22 -107 -58 -325 -33 -195 -43 -261 -56 -370 -6 -49 -15 -117
-20 -150 -5 -33 -12 -121 -16 -195 l-6 -135 36 -28 37 -28 77 21 c42 12 88 27
102 34 l25 12 6 644 c4 355 11 683 17 730 7 59 21 111 46 169 64 146 116 239
151 265 42 32 50 57 31 94 -13 25 -24 31 -63 36 -26 4 -60 9 -74 12 -25 5 -27
2 -49 -76z"/>
<path d="M2272 2057 c-37 -40 -29 -60 38 -92 94 -45 93 -57 -26 -176 -74 -75
-94 -100 -82 -104 19 -8 71 17 90 42 7 10 39 31 71 47 42 21 70 44 98 82 77
105 85 149 34 200 -22 22 -32 24 -113 24 -80 0 -91 -2 -110 -23z"/>
<path d="M2455 1709 c-16 -4 -79 -20 -140 -35 -227 -54 -276 -72 -313 -112
-55 -60 -77 -127 -49 -150 26 -22 98 4 267 96 41 23 88 42 103 42 l28 0 -40
-52 c-40 -53 -199 -200 -266 -245 -19 -13 -42 -37 -50 -53 -18 -36 -20 -145
-2 -157 16 -10 48 -5 67 11 19 15 129 61 193 80 47 14 47 14 47 -10 0 -20 -15
-32 -97 -74 -135 -69 -227 -121 -235 -134 -4 -6 -8 -19 -8 -28 0 -26 33 -23
125 13 99 38 151 55 193 64 l33 7 -21 -54 c-11 -29 -20 -54 -20 -54 0 -1 -35
-25 -77 -52 -43 -28 -96 -64 -118 -81 -22 -17 -52 -38 -67 -48 -16 -9 -28 -21
-28 -26 0 -4 -12 -18 -26 -30 l-26 -23 12 -99 c7 -55 14 -103 17 -107 8 -14
30 -8 49 13 26 28 72 51 179 86 82 28 106 31 265 37 190 6 334 27 361 52 9 8
23 29 30 46 18 44 -1 54 -123 62 -98 6 -193 -2 -398 -34 -36 -5 -96 -10 -134
-10 l-68 0 63 48 c60 44 67 47 121 45 l58 -1 59 81 c34 47 93 109 135 145 76
63 116 116 99 133 -5 5 -36 14 -69 20 -105 20 -144 37 -144 65 0 28 45 60 97
70 37 7 66 36 81 81 11 32 10 33 -46 75 -86 65 -109 78 -137 78 -14 0 -25 3
-25 8 0 11 91 87 127 105 26 14 73 71 73 90 0 10 -63 27 -94 26 -17 -1 -44 -5
-61 -10z m-113 -333 l-7 -58 -64 -24 c-35 -13 -67 -24 -72 -24 -13 0 86 125
118 150 15 11 27 19 29 18 1 -2 -1 -29 -4 -62z"/>
</g>
</svg>
